<?xml version="1.0" encoding="UTF-8" standalone="no"?>
<!-- Created with Inkscape (http://www.inkscape.org/) -->

<svg
   width="58.161549mm"
   height="22.007959mm"
   viewBox="0 0 58.161549 22.007959"
   version="1.1"
   id="svg1"
   inkscape:version="1.3.2 (091e20e, 2023-11-25, custom)"
   sodipodi:docname="recofinance.svg"
   xml:space="preserve"
   xmlns:inkscape="http://www.inkscape.org/namespaces/inkscape"
   xmlns:sodipodi="http://sodipodi.sourceforge.net/DTD/sodipodi-0.dtd"
   xmlns="http://www.w3.org/2000/svg"
   xmlns:svg="http://www.w3.org/2000/svg"><sodipodi:namedview
     id="namedview1"
     pagecolor="#ffffff"
     bordercolor="#000000"
     borderopacity="0.25"
     inkscape:showpageshadow="2"
     inkscape:pageopacity="0.0"
     inkscape:pagecheckerboard="0"
     inkscape:deskcolor="#d1d1d1"
     inkscape:document-units="mm"
     inkscape:zoom="0.1767767"
     inkscape:cx="-871.15555"
     inkscape:cy="6383.76"
     inkscape:window-width="1920"
     inkscape:window-height="1111"
     inkscape:window-x="-9"
     inkscape:window-y="-9"
     inkscape:window-maximized="1"
     inkscape:current-layer="layer1" /><defs
     id="defs1" /><g
     inkscape:label="Layer 1"
     inkscape:groupmode="layer"
     id="layer1"
     transform="translate(-89.442537,-658.75145)"><path
       id="path10"
       style="fill:#007ff3;fill-opacity:1;stroke-width:0.119567;stroke-linecap:round;stroke-linejoin:round;paint-order:stroke fill markers"
       d="m 94.7146,658.75147 c -0.56317,0 -1.01648,0.4533 -1.01648,1.01647 v 19.97449 5.2e-4 c 0,0.56318 0.45331,1.01648 1.01648,1.01648 0.21119,0 0.40676,-0.0637 0.56896,-0.17312 0.27018,-0.18223 0.44734,-0.49211 0.44752,-0.84388 v -19.97449 c 0,-0.56317 -0.45331,-1.01647 -1.01648,-1.01647 z m -4.25555,3.26647 c -0.0352,0 -0.0701,0.002 -0.10439,0.006 -0.34257,0.0346 -0.63348,0.23742 -0.78962,0.52555 -7e-5,1.3e-4 7e-5,3.9e-4 0,5.2e-4 -0.0311,0.0575 -0.0573,0.11831 -0.077,0.1819 -5e-5,1.5e-4 4e-5,3.6e-4 0,5.1e-4 -0.0295,0.0955 -0.0455,0.19741 -0.0455,0.30283 v 13.44104 c 0,0.0352 0.002,0.0696 0.005,0.10387 1e-5,1.7e-4 -2e-5,3.4e-4 0,5.1e-4 0.0208,0.20534 0.10234,0.39223 0.22634,0.54261 9e-5,10e-5 -9e-5,4.1e-4 0,5.1e-4 0.18616,0.22559 0.46832,0.36897 0.78497,0.36897 0.56317,0 1.01647,-0.4533 1.01647,-1.01647 v -13.44104 c 0,-0.52798 -0.39824,-0.95944 -0.91209,-1.01131 -0.0343,-0.003 -0.0692,-0.006 -0.10438,-0.006 z m 8.5111,0 c -0.38718,0 -0.72277,0.21429 -0.89452,0.53123 v 5.2e-4 c -0.0311,0.0575 -0.0568,0.11831 -0.0765,0.1819 v 5.1e-4 c -0.0295,0.0955 -0.046,0.19741 -0.046,0.30283 v 13.44104 c 0,0.0352 0.002,0.0696 0.006,0.10387 v 5.1e-4 c 0.0208,0.20534 0.10234,0.39223 0.22634,0.54261 v 5.1e-4 c 0.18616,0.22559 0.46832,0.36897 0.78496,0.36897 0.31665,0 0.59881,-0.1439 0.78497,-0.36948 0.124,-0.15038 0.20551,-0.33778 0.22634,-0.54312 0.003,-0.0343 0.005,-0.0687 0.005,-0.10387 v -13.44104 c 0,-0.1056 -0.0159,-0.20773 -0.0455,-0.30334 -0.0197,-0.0636 -0.0458,-0.12494 -0.077,-0.18242 -0.15619,-0.28792 -0.44772,-0.49098 -0.79014,-0.52555 -0.0342,-0.003 -0.0687,-0.006 -0.10387,-0.006 z" /><path
       style="font-size:14.1111px;line-height:1.2;font-family:Raleway;-inkscape-font-specification:Raleway;text-align:center;text-anchor:middle;fill:#333333;stroke-width:0.28919;stroke-linecap:round;stroke-linejoin:round;paint-order:stroke fill markers"
       d="M 105.69413,674.73218 V 664.7133 h 4.23333 q 0.64912,0 1.18534,0.26811 0.53622,0.26811 0.93133,0.73377 0.40922,0.45156 0.62089,1.016 0.22578,0.55034 0.22578,1.12889 0,0.71967 -0.28223,1.35467 -0.26811,0.635 -0.77611,1.07244 -0.49389,0.43745 -1.17122,0.57856 l 2.45533,3.86644 h -1.11477 l -2.35656,-3.69711 h -2.96333 v 3.69711 z m 0.98778,-4.572 h 3.27378 q 0.59266,0 1.03011,-0.32455 0.43744,-0.32456 0.67733,-0.84667 0.23989,-0.53622 0.23989,-1.12889 0,-0.60678 -0.28222,-1.11477 -0.26811,-0.52212 -0.73378,-0.83256 -0.45156,-0.32456 -1.016,-0.32456 h -3.18911 z m 10.97842,4.71311 q -0.79022,0 -1.46755,-0.29633 -0.67733,-0.31045 -1.17122,-0.83256 -0.49389,-0.53622 -0.77611,-1.22766 -0.26811,-0.69145 -0.26811,-1.48167 0,-1.03011 0.46566,-1.89089 0.47978,-0.86078 1.31234,-1.36877 0.83255,-0.52212 1.89088,-0.52212 1.08656,0 1.89089,0.52212 0.81844,0.52211 1.28411,1.38288 0.46567,0.84667 0.46567,1.86267 0,0.11289 0,0.22578 0,0.0988 -0.0141,0.15522 h -6.29355 q 0.0706,0.79022 0.43744,1.41111 0.381,0.60678 0.97367,0.97366 0.60677,0.35278 1.31233,0.35278 0.71966,0 1.35466,-0.36689 0.64911,-0.36689 0.90311,-0.95955 l 0.83256,0.22578 q -0.22578,0.52211 -0.69145,0.94544 -0.46566,0.42333 -1.10066,0.66322 -0.62089,0.22578 -1.34056,0.22578 z m -2.70933,-4.16278 h 5.43278 q -0.0564,-0.80433 -0.43745,-1.41111 -0.36689,-0.60677 -0.97366,-0.94544 -0.59267,-0.35278 -1.31234,-0.35278 -0.71966,0 -1.31233,0.35278 -0.59266,0.33867 -0.97366,0.95956 -0.36689,0.60677 -0.42334,1.39699 z m 7.85988,-6.27944 h 0.95956 v 8.636 q 0,0.55033 0.19756,0.71966 0.19755,0.16934 0.47977,0.16934 0.254,0 0.508,-0.0564 0.254,-0.0564 0.43745,-0.11289 l 0.16933,0.77611 q -0.26811,0.11289 -0.66322,0.18345 -0.381,0.0705 -0.66322,0.0705 -0.64911,0 -1.04423,-0.381 -0.381,-0.381 -0.381,-1.04422 z m 3.97932,12.55888 q 0.19756,0.0141 0.381,0.0141 0.18345,0.0141 0.26811,-0.0141 0.16934,-0.0282 0.32456,-0.19755 0.15522,-0.16933 0.36689,-0.64911 0.21166,-0.47978 0.59266,-1.41111 l -3.20322,-7.35189 h 1.016 l 2.69522,6.36411 2.48356,-6.36411 h 0.95955 l -3.81,9.48266 q -0.0988,0.26811 -0.29633,0.49389 -0.19755,0.23989 -0.49389,0.36689 -0.28222,0.14111 -0.70555,0.15522 -0.127,0.0141 -0.26811,0 -0.127,0 -0.31045,-0.0282 z m 6.604,-2.90688 4.92477,-5.98311 h -4.81189 v -0.71967 h 5.89844 v 0.64912 l -4.89655,5.9831 h 4.88244 v 0.71967 h -5.99721 z m 10.58333,0.79022 q -0.79022,0 -1.46755,-0.29633 -0.67733,-0.31045 -1.17122,-0.83256 -0.49389,-0.53622 -0.77611,-1.22766 -0.26811,-0.69145 -0.26811,-1.48167 0,-1.03011 0.46566,-1.89089 0.47978,-0.86078 1.31234,-1.36877 0.83255,-0.52212 1.89088,-0.52212 1.08656,0 1.89089,0.52212 0.81844,0.52211 1.28411,1.38288 0.46567,0.84667 0.46567,1.86267 0,0.11289 0,0.22578 0,0.0988 -0.0141,0.15522 h -6.29355 q 0.0706,0.79022 0.43744,1.41111 0.381,0.60678 0.97367,0.97366 0.60677,0.35278 1.31233,0.35278 0.71966,0 1.35466,-0.36689 0.64911,-0.36689 0.90311,-0.95955 l 0.83256,0.22578 q -0.22578,0.52211 -0.69144,0.94544 -0.46567,0.42333 -1.10067,0.66322 -0.62089,0.22578 -1.34056,0.22578 z m -2.70933,-4.16278 h 5.43278 q -0.0564,-0.80433 -0.43745,-1.41111 -0.36689,-0.60677 -0.97366,-0.94544 -0.59267,-0.35278 -1.31234,-0.35278 -0.71966,0 -1.31233,0.35278 -0.59266,0.33867 -0.97366,0.95956 -0.36689,0.60677 -0.42334,1.39699 z"
       id="path11"
       aria-label="Relyze" /></g></svg>
